<svg xmlns="http://www.w3.org/2000/svg" width="50" height="50" viewBox="0 0 50 50" fill="none">
    <circle cx="25" cy="25" r="24.5" stroke="#F5CB72" stroke-dasharray="5 5"/>
    <path d="M20.7335 30.9949L35.7386 16.3856C35.9969 16.1341 36.3037 16.0056 36.6589 16.0002C37.014 15.9948 37.3264 16.1232 37.5958 16.3856C37.8653 16.6479 38 16.9493 38 17.2897C38 17.6301 37.8653 17.9315 37.5958 18.1938L21.8325 33.5414C21.5185 33.8471 21.1522 34 20.7335 34C20.3149 34 19.9485 33.8471 19.6346 33.5414L12.3826 26.4807C12.1242 26.2292 11.9967 25.9305 12.0001 25.5847C12.0034 25.2389 12.1398 24.9348 12.4093 24.6725C12.6787 24.4101 12.9883 24.2789 13.3379 24.2789C13.6875 24.2789 13.997 24.4101 14.2665 24.6725L20.7335 30.9949Z" fill="white"/>
</svg>